<svg xmlns="http://www.w3.org/2000/svg" width="17.62" height="17.625" viewBox="0 0 17.62 17.625"><path fill='#fff' fill-rule='evenodd' d="M17.13 14.795a1.653 1.653 0 0 1-2.34 2.334l-4.83-4.837a6.627 6.627 0 1 1 2.33-2.334l4.84 4.835zM6.61 1.662a4.95 4.95 0 1 0 4.95 4.95 4.952 4.952 0 0 0-4.95-4.95z"/></svg>


<svg xmlns="http://www.w3.org/2000/svg" width="17.62" height="14.031" viewBox="0 0 17.62 14.031"><path fill='#fff'; fill-rule='evenodd' d="M17.54 3.1l-2.48 5.5a.815.815 0 0 1-.7.485l-7.12.475.41 1.177h7.76a1.65 1.65 0 1 1-1.65 1.65h-7.7a1.65 1.65 0 1 1-1.65-1.65H5.9L2.72 1.662H.83a.825.825 0 0 1 0-1.65h2.48a.835.835 0 0 1 .78.554l.48 1.373h12.21a.826.826 0 0 1 .83.824.94.94 0 0 1-.07.336zm-12.39.487l1.52 4.357 7.09-.473 1.75-3.883H5.15z"/></svg>
